<?xml version="1.0" encoding="iso-8859-1"?>
<!-- Generator: Adobe Illustrator 15.0.0, SVG Export Plug-In . SVG Version: 6.00 Build 0)  -->
<!DOCTYPE svg PUBLIC "-//W3C//DTD SVG 1.1//EN" "http://www.w3.org/Graphics/SVG/1.1/DTD/svg11.dtd">
<svg version="1.1" id="Layer_1" xmlns="http://www.w3.org/2000/svg" xmlns:xlink="http://www.w3.org/1999/xlink" x="0px" y="0px"
	 width="100px" height="100px" viewBox="0 0 244.737 247.369" style="enable-background:new 0 0 244.737 247.369;"
	 xml:space="preserve">
<path style="fill:#E01266;" d="M92.158,226.158c0,6.627-5.373,12-12,12h-6c-6.627,0-12-5.373-12-12v-208c0-6.627,5.373-12,12-12h6
	c6.627,0,12,5.373,12,12V226.158z"/>
<path style="fill:#E01266;" d="M182.158,226.158c0,6.627-5.373,12-12,12h-6c-6.627,0-12-5.373-12-12v-208c0-6.627,5.373-12,12-12h6
	c6.627,0,12,5.373,12,12V226.158z"/>
<path style="fill:#E01266;" d="M226.158,152.158c6.627,0,12,5.373,12,12v6c0,6.627-5.373,12-12,12h-208c-6.627,0-12-5.373-12-12v-6
	c0-6.627,5.373-12,12-12H226.158z"/>
<path style="fill:#E01266;" d="M226.158,62.158c6.627,0,12,5.373,12,12v6c0,6.627-5.373,12-12,12h-208c-6.627,0-12-5.373-12-12v-6
	c0-6.627,5.373-12,12-12H226.158z"/>
</svg>
